HIERARCHY
ROOT root
{
	OFFSET 0.000000 0.000000 0.000000
	CHANNELS 6 Xposition Yposition Zposition Zrotation Yrotation Xrotation
	JOINT lhip
	{
		OFFSET 0.058581 -0.082280 -0.017664
		CHANNELS 3 Zrotation Yrotation Xrotation
		JOINT lknee
		{
			OFFSET 0.043451 -0.386469 0.008037
			CHANNELS 3 Zrotation Yrotation Xrotation
			JOINT lankle
			{
				OFFSET -0.014790 -0.426874 -0.037428
				CHANNELS 3 Zrotation Yrotation Xrotation
				JOINT ltoe
				{
					OFFSET 0.041054 -0.060286 0.122042
					CHANNELS 3 Zrotation Yrotation Xrotation
					End Site
					{
						OFFSET 0.000000 0.000000 0.000000
					}
				}
			}
		}
	}
	JOINT rhip
	{
		OFFSET -0.060310 -0.090513 -0.013543
		CHANNELS 3 Zrotation Yrotation Xrotation
		JOINT rknee
		{
			OFFSET -0.043257 -0.383688 -0.004843
			CHANNELS 3 Zrotation Yrotation Xrotation
			JOINT rankle
			{
				OFFSET 0.019056 -0.420046 -0.034562
				CHANNELS 3 Zrotation Yrotation Xrotation
				JOINT rtoe
				{
					OFFSET -0.034840 -0.062106 0.130323
					CHANNELS 3 Zrotation Yrotation Xrotation
					End Site
					{
						OFFSET 0.000000 0.000000 0.000000
					}
				}
			}
		}
	}
	JOINT lowerback
	{
		OFFSET 0.004439 0.124404 -0.038385
		CHANNELS 3 Zrotation Yrotation Xrotation
		JOINT upperback
		{
			OFFSET 0.004488 0.137956 0.026820
			CHANNELS 3 Zrotation Yrotation Xrotation
			JOINT chest
			{
				OFFSET -0.002265 0.056032 0.002855
				CHANNELS 3 Zrotation Yrotation Xrotation
				JOINT lowerneck
				{
					OFFSET -0.013390 0.211636 -0.033468
					CHANNELS 3 Zrotation Yrotation Xrotation
					JOINT upperneck
					{
						OFFSET 0.010113 0.088937 0.050410
						CHANNELS 3 Zrotation Yrotation Xrotation
						End Site
						{
							OFFSET 0.000000 0.000000 0.000000
						}
					}
				}
				JOINT lclavicle
				{
					OFFSET 0.071702 0.114000 -0.018898
					CHANNELS 3 Zrotation Yrotation Xrotation
					JOINT lshoulder
					{
						OFFSET 0.122921 0.045205 -0.019046
						CHANNELS 3 Zrotation Yrotation Xrotation
						JOINT lelbow
						{
							OFFSET 0.255332 -0.015649 -0.022946
							CHANNELS 3 Zrotation Yrotation Xrotation
							JOINT lwrist
							{
								OFFSET 0.265709 0.012698 -0.007375
								CHANNELS 3 Zrotation Yrotation Xrotation
								End Site
								{
									OFFSET 0.000000 0.000000 0.000000
								}
							}
						}
					}
				}
				JOINT rclavicle
				{
					OFFSET -0.082954 0.112472 -0.023707
					CHANNELS 3 Zrotation Yrotation Xrotation
					JOINT rshoulder
					{
						OFFSET -0.113228 0.046853 -0.008472
						CHANNELS 3 Zrotation Yrotation Xrotation
						JOINT relbow
						{
							OFFSET -0.260127 -0.014369 -0.031269
							CHANNELS 3 Zrotation Yrotation Xrotation
							JOINT rwrist
							{
								OFFSET -0.269108 0.006794 -0.006027
								CHANNELS 3 Zrotation Yrotation Xrotation
								End Site
								{
									OFFSET 0.000000 0.000000 0.000000
								}
							}
						}
					}
				}
			}
		}
	}
}
MOTION
Frames: 16
Frame Time: 0.033333
-1.922459 0.617409 1.008849 -1.501192 2.427180 85.374124 1.847783 -9.794201 -0.751538 -8.151364 -26.437534 21.627204 3.674049 4.327747 -14.264987 0.000000 -0.000000 0.000000 -4.398851 2.846734 0.240695 1.335130 15.425505 15.869587 10.204266 0.207019 -8.274135 0.000000 -0.000000 0.000000 -3.472974 2.488905 5.790068 4.687037 -5.410992 0.870062 1.732343 -2.831626 0.989789 10.429016 9.298937 -11.590624 4.256850 -1.599835 1.646660 -24.352959 -9.307692 -0.186262 -53.016462 -16.720630 19.057221 -6.652897 -23.719102 21.995960 -5.650793 -2.311995 -1.953048 23.182866 1.598912 -1.677219 50.039035 0.574277 14.096125 -15.596500 22.226753 0.215618 7.764902 -2.520200 -1.273743 
-1.936385 0.617427 1.009526 2.086872 1.928182 86.143591 2.365445 -10.215158 -2.778647 -8.392385 -25.926081 23.156619 3.065620 3.722774 -13.787108 0.000000 -0.000000 0.000000 -3.773051 2.006511 1.453857 0.520664 13.448896 13.590578 9.292477 -0.924750 -9.387022 0.000000 -0.000000 0.000000 -3.223962 2.957579 5.684635 3.614371 -4.287877 0.160887 1.573848 -1.900555 1.077945 9.470398 13.024330 -11.432046 2.721144 4.047435 -0.079015 -24.753513 -6.957962 -1.941235 -52.000196 -15.318251 16.284808 -2.564212 -22.145457 18.768088 -5.517106 -1.965611 -0.861427 22.315529 1.081636 -1.572803 48.905183 2.197363 13.601958 -15.716659 21.938414 0.493088 6.930465 -2.173013 -0.723672 
-1.949908 0.618236 1.009556 5.546504 1.330582 86.437839 2.873671 -10.440770 -4.347557 -8.990343 -25.085726 24.291273 2.626466 3.432779 -13.255865 0.000000 -0.000000 0.000000 -3.081759 0.967995 2.731918 -0.098310 11.971298 11.722326 8.275809 -2.670209 -10.360939 0.000000 -0.000000 0.000000 -2.768086 3.683549 6.131621 2.294643 -3.413785 0.004345 1.471921 -1.597500 0.983653 8.194329 16.586274 -11.787663 1.025183 9.886410 -1.448078 -24.738547 -5.001580 -3.165659 -49.929640 -13.732680 13.263268 0.509704 -22.953032 13.205018 -3.648665 -0.772234 -3.453413 21.371595 1.039492 -1.539027 47.498156 3.975377 13.245252 -15.682043 22.242440 -0.868608 6.629967 -2.377187 -2.171518 
-1.963539 0.619608 1.009695 8.557864 0.629531 86.770499 3.333090 -10.323253 -5.821105 -8.907723 -23.432086 24.817593 1.859644 3.112075 -12.682695 0.000000 -0.000000 0.000000 -2.377587 -0.133580 3.542344 -1.018292 10.486299 10.135055 6.995987 -3.984887 -11.541676 0.000000 -0.000000 0.000000 -2.584164 4.200359 6.634904 1.119564 -2.583644 -0.436483 1.321555 -1.115487 1.222419 6.721466 19.676381 -11.982873 -0.325948 14.338316 -3.128682 -24.907125 -2.784043 -4.280077 -48.333321 -13.112479 9.885361 4.600671 -23.239770 6.879638 -3.599609 -0.766172 -6.911588 21.109135 0.598527 -1.579972 46.067308 6.199869 12.462731 -16.596542 22.514792 -1.960603 6.369673 -2.356354 -2.360700 
-1.975185 0.622606 1.007790 12.030558 0.091837 87.254226 3.577205 -10.507819 -7.936506 -8.746862 -21.179319 25.856885 1.538617 3.269159 -12.195457 0.000000 -0.000000 0.000000 -1.826489 -1.152375 4.167382 -1.623947 9.089204 8.359911 6.202419 -5.080887 -12.375170 0.000000 -0.000000 0.000000 -2.221744 4.272053 7.115147 0.346714 -2.392629 -0.534618 1.157842 -0.606689 1.222544 4.824803 21.784653 -12.308177 -1.700315 17.951105 -4.634078 -24.529988 -1.206033 -4.940818 -47.266794 -12.511627 7.031661 7.779758 -23.945228 0.027881 -3.390380 -0.494600 -11.381889 20.247998 0.580735 -1.549893 45.138863 8.160515 11.807770 -17.991802 23.165482 -3.913570 6.637047 -2.561840 -2.773394 
-1.985444 0.625947 1.006004 15.432461 -0.616677 87.789762 4.113601 -10.034730 -10.163402 -9.440116 -18.178962 26.624467 1.579118 3.134643 -11.980927 0.000000 -0.000000 0.000000 -1.922851 -2.167742 4.376501 -1.598341 7.405386 7.130963 5.514737 -5.498240 -13.363424 0.000000 -0.000000 0.000000 -2.089977 4.401025 7.730617 -0.195639 -2.371054 -1.005900 1.040518 -0.525591 1.327784 3.535435 23.618042 -12.812045 -3.030886 20.223672 -5.175658 -23.643401 -0.009085 -5.379006 -46.715563 -11.795444 4.905630 10.763577 -23.536528 -4.307261 -3.949383 -0.979065 -14.137879 19.540736 0.567610 -1.537167 44.381368 10.569996 10.591941 -19.833108 23.159274 -6.285480 7.545868 -2.434330 -3.696896 
-1.995939 0.629055 1.004224 18.489471 -0.684450 88.206600 4.318869 -9.211646 -11.611069 -8.447295 -16.210325 26.825079 1.479067 3.620146 -12.488008 0.000000 -0.000000 0.000000 -0.825204 -2.738265 4.619566 -2.104979 5.858196 5.757228 4.485248 -6.785562 -14.109801 0.000000 -0.000000 0.000000 -1.495373 4.294164 8.485648 -0.591719 -2.290233 -1.562455 1.039519 -0.307403 1.407526 2.418433 24.461346 -13.397099 -4.022700 21.920101 -5.315668 -22.996679 0.491945 -5.614251 -45.867893 -10.810623 2.868444 13.151219 -22.357124 -7.413665 -2.528561 -0.940248 -14.296395 18.834648 0.899531 -1.681345 44.011554 12.254323 9.618843 -20.903388 23.559272 -7.650756 6.776179 -1.746611 -3.845134 
-2.004237 0.632185 1.003429 21.602503 -1.030323 88.428399 4.296746 -7.897936 -12.530284 -7.894489 -13.501302 26.285694 1.677416 3.757235 -12.632148 0.000000 -0.000000 0.000000 -0.119545 -3.565191 4.431489 -2.589778 3.922169 5.312532 3.638152 -8.003868 -14.299322 0.000000 -0.000000 0.000000 -1.277706 4.262044 9.000376 -0.826898 -2.234999 -1.632078 1.134504 -0.145663 1.407425 1.435985 24.790955 -13.279457 -4.994787 22.849117 -6.371673 -22.392303 0.321291 -5.541354 -45.136095 -9.723770 1.511572 14.123293 -20.669789 -8.309074 -0.574513 -0.521218 -13.851235 18.362923 1.546808 -1.560917 43.633705 13.667499 8.698208 -21.873975 23.901930 -9.699048 3.425480 -1.362093 -4.922037 
-2.011672 0.634975 1.002645 24.682999 -1.514764 88.589663 3.814731 -6.545923 -13.107505 -7.304040 -10.939537 25.411455 2.116118 4.292496 -12.413769 0.000000 -0.000000 0.000000 0.980284 -3.780823 3.588522 -3.614992 2.370176 6.093329 2.350571 -10.598300 -15.548268 0.000000 -0.000000 0.000000 -1.739281 4.160971 9.614883 -0.733724 -1.912728 -2.059460 1.413099 -0.187818 1.706194 0.903350 25.079935 -13.953370 -5.455515 23.403464 -6.642543 -21.767990 0.551391 -5.385150 -45.142435 -8.955220 0.698686 14.329025 -19.221717 -7.670763 0.398184 -0.044912 -13.610971 18.012976 1.774609 -1.979905 43.749746 14.905326 8.429396 -22.844314 24.053575 -10.922118 2.265173 -1.177385 -5.637091 
-2.018200 0.637595 1.001648 28.780239 -1.944686 88.532748 3.300311 -5.943886 -13.706656 -6.848924 -8.826797 24.827324 2.296558 4.692850 -12.183454 0.000000 -0.000000 0.000000 1.862761 -3.849557 3.081405 -4.302939 0.716483 7.021697 1.058099 -12.832803 -16.341355 0.000000 -0.000000 0.000000 -2.142159 3.847827 9.855977 -0.604215 -2.259974 -1.759672 1.519025 -0.017248 2.029380 0.829334 24.937331 -14.047943 -5.945316 23.332586 -7.446388 -21.036892 0.504548 -4.914323 -45.331414 -8.563172 0.200722 13.837412 -18.398552 -6.432602 -0.657080 -0.042888 -13.868727 17.829263 2.005451 -2.228323 44.316202 15.888020 8.224681 -24.269079 23.932480 -11.987566 2.285079 -0.985609 -5.238580 
-2.023559 0.639785 1.000253 33.203205 -2.156685 88.297096 2.536887 -5.565397 -13.923750 -5.559545 -7.340224 24.359860 2.292929 5.804292 -12.835999 0.000000 -0.000000 0.000000 2.736242 -4.033895 2.921183 -4.809014 -1.087259 7.760046 0.056372 -14.927039 -17.512548 0.000000 -0.000000 0.000000 -2.288859 3.597126 11.072107 -0.517825 -2.497753 -2.585956 1.783204 -0.276424 2.206818 0.719954 24.812269 -14.234549 -6.088384 23.303854 -7.635188 -20.639455 0.460960 -4.299833 -45.664624 -7.714454 0.128032 12.847925 -18.713787 -4.712388 -0.947942 -0.104259 -13.851106 17.633221 2.159521 -2.440068 45.022518 16.085527 8.250001 -24.734053 24.148442 -12.648196 1.083334 -0.617914 -5.332814 
-2.027740 0.642242 0.997836 37.638014 -2.174428 88.214383 2.202980 -4.791352 -14.583038 -4.267932 -4.549330 25.142454 2.909871 7.240934 -14.381263 0.000000 -0.000000 0.000000 3.640216 -4.505838 2.433015 -5.315426 -2.492333 8.749005 -0.482051 -16.468648 -18.586654 0.000000 -0.000000 0.000000 -2.201867 3.684607 10.975631 -0.291296 -2.633747 -1.868630 1.954463 -0.515982 2.421667 0.621125 24.136358 -14.513713 -6.470891 22.892089 -8.182505 -20.595643 0.132998 -3.710280 -46.263072 -7.508922 0.392464 11.834259 -19.523014 -3.043560 -1.616478 0.148123 -13.811807 17.773561 2.661995 -2.187739 45.072559 16.297858 8.049596 -25.230558 24.170828 -13.154051 1.393610 -0.661114 -5.639224 
-2.030778 0.644495 0.995435 42.049969 -2.188358 88.106180 2.218868 -3.518019 -15.098468 -3.146202 -0.998047 26.724517 2.951625 9.177894 -16.122428 0.000000 -0.000000 0.000000 4.158184 -5.108666 1.886816 -5.543117 -4.610675 9.645469 -1.055157 -18.041571 -19.117524 0.000000 -0.000000 0.000000 -1.998632 3.551570 11.453066 -0.242523 -2.574145 -2.193836 2.031853 -0.711921 2.658063 0.823951 23.209819 -14.544313 -6.382087 22.633910 -8.199013 -20.900295 -0.278529 -3.370281 -46.885875 -7.046640 0.984084 10.831664 -20.162419 -1.180422 -1.009152 -0.067905 -13.041681 17.860431 2.711424 -2.292363 45.594408 16.175905 8.273174 -23.897525 24.325305 -12.654375 0.910350 -0.386362 -5.584160 
-2.032505 0.645670 0.994264 46.251770 -2.233873 87.618164 2.350262 -1.858612 -14.674915 -1.637944 3.657531 28.588951 3.628956 11.639719 -16.777987 0.000000 -0.000000 0.000000 4.384149 -5.779598 1.961855 -5.804643 -6.921098 10.443784 -2.190102 -19.396241 -19.377086 0.000000 -0.000000 0.000000 -2.189579 3.621082 12.003774 -0.154717 -2.391481 -2.147783 2.336606 -0.724261 2.652976 1.187630 21.733355 -14.249615 -6.127856 22.164662 -8.021413 -21.186323 -0.742514 -2.754298 -48.107994 -6.901935 1.518899 9.889346 -20.586364 0.779958 -0.939363 0.029055 -12.526095 18.073227 3.000011 -2.086302 46.411288 15.878191 8.441075 -22.930597 23.418123 -11.477671 1.220696 -0.512431 -4.834731 
-2.032693 0.647230 0.993683 50.707823 -2.243193 87.509444 2.767686 -0.293875 -14.557415 -0.431419 7.555857 31.012097 4.720174 14.015299 -17.393406 0.000000 -0.000000 0.000000 4.348727 -6.573124 1.727551 -5.632910 -8.829894 11.330450 -2.331776 -19.902167 -19.040439 0.000000 -0.000000 0.000000 -2.276859 3.543357 11.686688 0.047910 -2.510939 -1.814894 2.487406 -1.088658 2.839660 1.425560 20.261632 -14.426091 -5.709706 21.519822 -7.764542 -21.696862 -1.153397 -1.801424 -49.583412 -6.502651 2.225094 9.183362 -21.015832 2.529415 -1.454962 -0.107505 -12.640105 18.494481 3.723668 -1.690837 47.351277 16.083083 8.712742 -22.121026 21.852240 -10.079617 2.283212 -0.632316 -3.151416 
-2.032612 0.647968 0.993279 54.307489 -2.254299 87.081830 3.317350 1.181148 -13.448867 0.851819 11.274454 32.595511 5.695118 15.512611 -17.058884 0.000000 -0.000000 0.000000 4.512687 -7.072687 2.046261 -5.933678 -10.648181 11.645062 -3.017359 -21.248578 -19.091899 0.000000 -0.000000 0.000000 -2.634231 3.767978 11.847365 0.105711 -2.177409 -1.680903 2.753088 -1.008270 2.832868 1.950607 18.910531 -14.300971 -5.049697 20.421864 -7.177282 -21.983686 -1.129727 -1.024424 -51.230978 -6.472486 2.802779 7.552137 -21.251759 4.873625 -1.729443 0.432839 -12.512204 19.119476 4.132621 -1.309127 48.517862 16.248627 9.247593 -20.664562 20.509571 -8.501032 0.998259 -1.064239 -1.593680 
